<?xml version="1.0" encoding="iso-8859-1"?>
<!-- Generator: Adobe Illustrator 19.0.0, SVG Export Plug-In . SVG Version: 6.00 Build 0)  -->
<svg version="1.1" id="Capa_1" xmlns="http://www.w3.org/2000/svg" xmlns:xlink="http://www.w3.org/1999/xlink" x="0px" y="0px"
	 viewBox="0 0 512 512" style="enable-background:new 0 0 512 512;" xml:space="preserve">
<g>
	<g>
		<path d="M467,61H105c-24.813,0-45,20.187-45,45v15H45c-24.92,0-45,20.312-45,45v240c0,24.813,20.191,45,45,45h362
			c24.824,0,45-20.241,45-45v-15h15c24.813,0,45-20.187,45-45V106C512,81.187,491.813,61,467,61z M399.454,151L236.643,314.001
			c-2.837,2.856-6.617,4.429-10.643,4.429s-7.806-1.573-10.672-4.459L52.546,151H399.454z M30,397.308V170.879L137.975,278.98
			L30,397.308z M407,421H48.994l110.205-120.772l34.875,34.916c8.511,8.568,19.85,13.288,31.927,13.288
			c12.077,0,23.416-4.719,31.897-13.258l37.194-37.238l112.769,123.021C407.575,420.973,407.291,421,407,421z M422,391.984
			L316.313,276.689L422,170.879V391.984z M482,346c0,8.271-6.729,15-15,15h-15V166c0-24.717-20.11-45-45-45H90v-15
			c0-8.271,6.729-15,15-15h362c8.271,0,15,6.729,15,15V346z"/>
	</g>
</g>
<g>
</g>
<g>
</g>
<g>
</g>
<g>
</g>
<g>
</g>
<g>
</g>
<g>
</g>
<g>
</g>
<g>
</g>
<g>
</g>
<g>
</g>
<g>
</g>
<g>
</g>
<g>
</g>
<g>
</g>
</svg>
