<svg height="472pt" viewBox="0 -92 472.09812 472" width="472pt" xmlns="http://www.w3.org/2000/svg"><path d="m8.097656 192.050781c-3.746094.046875-7.023437-2.515625-7.882812-6.164062-.863282-3.648438.925781-7.402344 4.300781-9.035157l31.582031-15.746093 88.121094-57.75c3.691406-2.429688 8.65625-1.40625 11.085938 2.289062 2.429687 3.691407 1.40625 8.65625-2.285157 11.085938l-88.539062 58.007812c-.257813.171875-.523438.328125-.796875.472657l-32 16c-1.113282.554687-2.339844.84375-3.585938.839843zm0 0" fill="#ea9d2d"/><path d="m16.097656 240.050781c-3.234375 0-6.152344-1.949219-7.390625-4.9375-1.234375-2.992187-.550781-6.429687 1.734375-8.71875l32-32c3.140625-3.03125 8.128906-2.988281 11.214844.097657 3.085938 3.085937 3.128906 8.074218.097656 11.214843l-32 32c-1.5 1.5-3.535156 2.34375-5.65625 2.34375zm0 0" fill="#ea9d2d"/><path d="m40.097656 176.050781h-32c-4.417968 0-7.9999998-3.582031-7.9999998-8s3.5820318-8 7.9999998-8h32c4.417969 0 8 3.582031 8 8s-3.582031 8-8 8zm0 0" fill="#ea9d2d"/><path d="m8.097656 224.050781c-3.839844.007813-7.144531-2.714843-7.871094-6.484375-.726562-3.769531 1.328126-7.527344 4.894532-8.949218l38.863281-15.535157 87.050781-71.199219c2.207032-1.863281 5.246094-2.390624 7.949219-1.382812 2.707031 1.007812 4.660156 3.394531 5.109375 6.246094.453125 2.855468-.667969 5.726562-2.929688 7.519531l-88 72c-.628906.519531-1.335937.9375-2.089843 1.242187l-40 16c-.949219.367188-1.957031.550782-2.976563.542969zm0 0" fill="#ea9d2d"/><path d="m125.625 104.5625 18.03125 33.207031c38.136719 70.246094 101.023438 123.808594 176.441406 150.28125l-23.296875-114.128906-171.199219-69.359375" fill="#bdbdbd"/><path d="m440.097656 24.050781 32 16h-40zm0 0" fill="#f3af3e"/><path d="m439.722656 19.738281c-1.832031-9.824219-9.53125-17.503906-19.359375-19.3125-6.136719-1.109375-12.457031.246094-17.601562 3.769531-3.285157 2.398438-7.222657 3.746094-11.289063 3.855469h-2.023437c-20.628907 0-37.351563 16.722657-37.351563 37.351563v34.648437h-32c-20.21875-25.273437-50.832031-39.992187-83.199218-40h-3.878907c-26.339843-.007812-51.746093 9.738281-71.320312 27.359375l-34.882813 31.390625-15.328125 12.65625.609375.59375 118.808594 95.046875c27.238281 21.78125 58.113281 38.570313 91.199219 49.601563l93.992187 31.351562-35.839844-71.679687c-18.527343-37.042969-45.421874-69.261719-78.558593-94.105469l-13.601563-10.214844h66.648438c20.628906 0 37.351562-16.722656 37.351562-37.351562v-34.648438h6.234375c7.148438 8.011719 18.761719 10.28125 28.402344 5.550781 9.640625-4.730468 14.949219-15.304687 12.988281-25.863281zm0 0" fill="#ebebeb"/><path d="m392.097656 240.050781-11.144531-3.199219c-28.816406-8.230468-53.433594-27.101562-68.855469-52.800781l-44.273437-22.136719c-23.671875-11.828124-45.28125-27.398437-64-46.113281l-19.726563-19.75-48 35.199219 94.808594 75.847656c27.238281 21.78125 58.113281 38.570313 91.199219 49.601563l93.992187 31.351562zm0 0" fill="#cdcdcd"/><g fill="#a8a8a8"><path d="m384.097656 288.050781c-2.867187.007813-5.519531-1.515625-6.953125-4l-48-84c-1.5-2.484375-1.535156-5.589843-.089843-8.109375 1.441406-2.519531 4.136718-4.058594 7.039062-4.023437 2.902344.035156 5.558594 1.644531 6.941406 4.195312l48 84c2.1875 3.835938.855469 8.722657-2.976562 10.914063-1.207032.683594-2.574219 1.035156-3.960938 1.023437zm0 0"/><path d="m336.097656 272.050781c-4.417968 0-8-3.582031-8-8v-64c0-4.417969 3.582032-8 8-8 4.417969 0 8 3.582031 8 8v64c0 4.417969-3.582031 8-8 8zm0 0"/><path d="m304.097656 256.050781c-.332031 0-.667968-.023437-1-.0625-4.382812-.550781-7.488281-4.546875-6.945312-8.929687l8-64c.640625-4.296875 4.59375-7.296875 8.90625-6.757813 4.3125.539063 7.402344 4.417969 6.96875 8.742188l-8 64c-.5 4-3.898438 7.003906-7.929688 7.007812zm0 0"/><path d="m272.097656 240.050781c-.742187-.003906-1.484375-.105469-2.199218-.304687-4.246094-1.214844-6.703126-5.640625-5.488282-9.886719l16-56c.695313-2.847656 2.894532-5.082031 5.726563-5.832031 2.832031-.746094 5.847656.113281 7.859375 2.242187 2.011718 2.128907 2.699218 5.1875 1.789062 7.972657l-16 56c-.976562 3.4375-4.113281 5.804687-7.6875 5.808593zm0 0"/><path d="m240.097656 216.050781c-2.878906-.003906-5.539062-1.554687-6.957031-4.066406-1.414063-2.507813-1.375-5.582031.109375-8.054687l27.726562-46.136719c1.429688-2.539063 4.121094-4.101563 7.035157-4.082031 2.914062.023437 5.585937 1.625 6.972656 4.1875 1.390625 2.5625 1.277344 5.675781-.292969 8.128906l-27.730468 46.144531c-1.445313 2.40625-4.050782 3.882813-6.863282 3.878906zm0 0"/><path d="m208.097656 192.050781c-3.398437 0-6.425781-2.144531-7.550781-5.351562s-.101563-6.773438 2.550781-8.898438l40-32c3.449219-2.757812 8.488282-2.199219 11.25 1.25 2.761719 3.449219 2.199219 8.488281-1.25 11.246094l-40 32c-1.417968 1.136719-3.183594 1.753906-5 1.753906zm0 0"/><path d="m152.097656 152.050781c-3.660156.003907-6.855468-2.472656-7.761718-6.019531-.90625-3.542969.710937-7.253906 3.921874-9.003906l51.761719-28.242188c3.878907-2.113281 8.738281-.6875 10.855469 3.195313 2.117188 3.878906.6875 8.738281-3.191406 10.855469l-51.761719 28.238281c-1.171875.640625-2.488281.976562-3.824219.976562zm0 0"/></g><path d="m379.769531 9.476562c-1.070312.285157-2.136719.605469-3.199219.980469-1.25.46875-2.476562 1.003907-3.671874 1.601563-.550782.273437-1.089844.585937-1.601563.878906-1.382813.773438-2.714844 1.625-4 2.554688l10.257813 6.6875c7.585937 5.140624 14.558593 11.136718 20.777343 17.871093l1.726563 1.601563c4.34375 4.082031 10.074218 6.367187 16.039062 6.398437 12.4375.015625 22.828125-9.472656 23.9375-21.859375 1.109375-12.390625-7.429687-23.570312-19.671875-25.765625-6.136719-1.109375-12.457031.246094-17.601562 3.769531-3.285157 2.398438-7.222657 3.746094-11.289063 3.855469h-2.023437c-2.269531.023438-4.535157.25-6.765625.679688-.984375.191406-1.953125.480469-2.914063.746093zm0 0" fill="#e06661"/><path d="m416.097656 32.050781c-1.039062.011719-2.070312-.175781-3.039062-.558593-.972656-.4375-1.863282-1.03125-2.640625-1.761719-1.503907-1.503907-2.339844-3.550781-2.320313-5.679688.03125-2.117187.859375-4.148437 2.320313-5.679687 1.914062-1.886719 4.644531-2.699219 7.28125-2.160156.5.085937.984375.25 1.4375.480468.492187.160156.953125.402344 1.363281.71875.457031.273438.886719.597656 1.277344.960938 1.460937 1.53125 2.292968 3.5625 2.320312 5.679687-.011718 1.046875-.230468 2.078125-.640625 3.039063-.40625.96875-.976562 1.863281-1.679687 2.640625-1.507813 1.503906-3.550782 2.335937-5.679688 2.320312zm0 0" fill="#a83b32"/><path d="m177.984375 171.113281c-3.746094.046875-7.023437-2.515625-7.882813-6.160156-.859374-3.648437.925782-7.40625 4.300782-9.039063l54.121094-27.0625c3.953124-1.976562 8.757812-.371093 10.734374 3.582032 1.976563 3.957031.371094 8.761718-3.582031 10.738281l-54.121093 27.054687c-1.105469.570313-2.324219.875-3.570313.886719zm0 0" fill="#a8a8a8"/><path d="m301.699219 122.265625-13.601563-10.214844c-5.191406-10.386719-13.613281-18.808593-24-24l-4.671875-2.335937c-7.449219-3.726563-15.667969-5.667969-24-5.664063h-.992187c-6.824219 0-13.589844 1.300781-19.925782 3.839844l-30.410156 12.160156 19.753906 19.75c18.714844 18.714844 40.324219 34.285157 64 46.113281l44.246094 22.136719c15.421875 25.699219 40.039063 44.570313 68.855469 52.800781l11.144531 3.199219-11.839844-23.679687c-18.527343-37.042969-45.421874-69.261719-78.558593-94.105469zm0 0" fill="#e4e4e2"/></svg>