<svg height="512" viewBox="0 0 512 512" width="512" xmlns="http://www.w3.org/2000/svg"><g id="Filled_outline" data-name="Filled outline"><path d="m312 144v89.52a48.01 48.01 0 0 1 -17.27 36.87l-65.38 54.48a48.005 48.005 0 0 1 -30.73 11.13h-94.62l80-128h80a8 8 0 0 0 8-8v-48a8 8 0 0 0 -8-8h-64a40 40 0 0 1 -40-40v-43.16a36.841 36.841 0 0 1 57.28-30.65l14.72 9.81v32h-32v32h72a40 40 0 0 1 40 40z" fill="#e0e0de"/><path d="m312 200.93v32.59a48.01 48.01 0 0 1 -17.27 36.87l-65.38 54.48a48.005 48.005 0 0 1 -30.73 11.13h-64.75c57.96-21.83 130.16-61.77 178.13-135.07z" fill="#d6d6d4"/><path d="m376 64-144-24v32h144z" fill="#ffb531"/><path d="m156.227 201.507-84.227 182.493h27.205a48 48 0 0 0 35.018-15.171l93.9-100.162a43.909 43.909 0 0 0 11.877-30.03v-18.73a43.907 43.907 0 0 0 -43.907-43.907 43.908 43.908 0 0 0 -39.866 25.507z" fill="#4d5e78"/><path d="m440 72v240h-96v-240h32v64h32v-64z" fill="#60d1e0"/><path d="m440 137.05v174.95h-96v-28.17c31.31-30.46 69.09-78.01 96-146.78z" fill="#5ac6d4"/><path d="m244.017 200a51.9 51.9 0 0 0 -95.056-1.844l-84.227 182.492a8 8 0 0 0 7.266 11.352h27.2a56.211 56.211 0 0 0 40.856-17.7l28.409-30.3h9.935l-26.682 48.028a15.942 15.942 0 0 0 -4.865 31.049l11.389 56.923h-14.242v16h112v-16h-33.442l-12.012-60.061a15.812 15.812 0 0 0 .255-23.668l12.416-55.871 76.619-63.847a55.82 55.82 0 0 0 20.164-43.033v-89.52a47.88 47.88 0 0 0 -48-48h-64v-16h128v232a8 8 0 0 0 8 8h96a8 8 0 0 0 8-8v-240a8 8 0 0 0 -8-8h-32a8 8 0 0 0 -8 8v56h-16v-64a8 8 0 0 0 -6.684-7.891l-142.307-23.717-13.29-8.861a44.694 44.694 0 0 0 -24.875-7.531h-83.544a43.047 43.047 0 0 0 -40.89 29.469l15.18 5.062a27 27 0 0 1 24.21-18.412 42.934 42.934 0 0 0 -7.392 13.35l15.18 5.062a27.06 27.06 0 0 1 25.712-18.531h17.261a44.618 44.618 0 0 0 -10.561 28.844v43.156a47.88 47.88 0 0 0 48 48h64v48zm-159.517 176 78.988-171.141a35.907 35.907 0 0 1 68.512 15.047v18.731a35.783 35.783 0 0 1 -9.711 24.558l-14.289 15.242v-54.437h-16v71.5l-16 17.066v-56.566h-16v73.635l-16 17.065v-42.7h-16v59.691a40.112 40.112 0 0 1 -28.8 12.309zm90.054 104-12.012-60.061a15.7 15.7 0 0 0 3.141-20.1l31.024-55.839h9.321l-10.849 48.823a15.894 15.894 0 0 0 -.322 30.254l11.385 56.923zm233.446-336a8 8 0 0 0 8-8v-56h16v192h-64v16h64v16h-80v-224h16v56a8 8 0 0 0 8 8zm-168-80v-14.555l87.34 14.555zm-27.156-27.156 11.156 7.437v19.719h-56v-3.156a28.845 28.845 0 0 1 44.844-24zm51.156 99.156h-64a31.876 31.876 0 0 1 -32-32v-24h24v24a8 8 0 0 0 8 8h72a31.876 31.876 0 0 1 32 32v89.52a39.857 39.857 0 0 1 -14.4 30.734l-76.5 63.746h-29.635l50.5-53.863a51.721 51.721 0 0 0 14.035-35.5s-.1-21.343-.2-22.637h16.2a16.016 16.016 0 0 0 16-16v-48a16.016 16.016 0 0 0 -16-16z"/><path d="m192 40h16v16h-16z"/></g></svg>